<svg id="visual" viewBox="0 0 900 600" width="100%" height="100%" xmlns="http://www.w3.org/2000/svg" xmlns:xlink="http://www.w3.org/1999/xlink" version="1.1">
    <path d="M0 343L30 350.2C60 357.3 120 371.7 180 366.7C240 361.7 300 337.3 360 340.2C420 343 480 373 540 375.7C600 378.3 660 353.7 720 342.8C780 332 840 335 870 336.5L900 338L900 601L870 601C840 601 780 601 720 601C660 601 600 601 540 601C480 601 420 601 360 601C300 601 240 601 180 601C120 601 60 601 30 601L0 601Z" fill="#1a1a1a">
    </path>
    <path d="M0 435L30 428C60 421 120 407 180 412.2C240 417.3 300 441.7 360 441.2C420 440.7 480 415.3 540 403.2C600 391 660 392 720 393C780 394 840 395 870 395.5L900 396L900 601L870 601C840 601 780 601 720 601C660 601 600 601 540 601C480 601 420 601 360 601C300 601 240 601 180 601C120 601 60 601 30 601L0 601Z" fill="#161616">
    </path>
    <path d="M0 462L30 459.2C60 456.3 120 450.7 180 453.8C240 457 300 469 360 468.3C420 467.7 480 454.3 540 454C600 453.7 660 466.3 720 470.2C780 474 840 469 870 466.5L900 464L900 601L870 601C840 601 780 601 720 601C660 601 600 601 540 601C480 601 420 601 360 601C300 601 240 601 180 601C120 601 60 601 30 601L0 601Z" fill="#0d0d0d">
    </path>
    <path d="M0 494L30 504.7C60 515.3 120 536.7 180 538.5C240 540.3 300 522.7 360 512.7C420 502.7 480 500.3 540 509C600 517.7 660 537.3 720 541.2C780 545 840 533 870 527L900 521L900 601L870 601C840 601 780 601 720 601C660 601 600 601 540 601C480 601 420 601 360 601C300 601 240 601 180 601C120 601 60 601 30 601L0 601Z" fill="#000000">
    </path>
</svg>