<?xml version="1.0" encoding="utf-8"?>
<svg version="1.1" id="Layer_1" xmlns="http://www.w3.org/2000/svg" xmlns:xlink="http://www.w3.org/1999/xlink" x="0px" y="0px" 
	viewBox="0 0 512 512" fill="#e60023" xml:space="preserve" width="25px" height="25px">
	<g>
		<path d="M42.31,276.73l160.62,149.96c6.67,6.22,15.47,9.69,24.62,9.69c9.16,0,17.96-3.47,24.62-9.69l2.31-2.13
			c-16.98-24.98-26.93-55.2-26.93-87.73c0-86.4,70.04-156.44,156.44-156.44c25.16,0,48.89,5.96,69.96,16.44
			c0.8-5.78,1.16-11.56,1.16-17.42v-5.16c0-62.13-44.89-115.11-106.13-125.33c-40.53-6.76-81.78,6.49-110.76,35.47l-10.67,10.67
			l-10.67-10.67c-28.98-28.98-70.22-42.22-110.76-35.47C44.89,59.13,0,112.11,0,174.24v5.16C0,216.29,15.29,251.58,42.31,276.73
			L42.31,276.73z M512,336.82c0-70.69-57.31-128-128-128s-128,57.31-128,128s57.31,128,128,128S512,407.51,512,336.82z
			M455.11,336.82c0,7.82-6.4,14.22-14.22,14.22H327.11c-7.82,0-14.22-6.4-14.22-14.22s6.4-14.22,14.22-14.22h113.78
			C448.71,322.6,455.11,329,455.11,336.82z"
		/>
	</g>
</svg>
