<?xml version="1.0" encoding="utf-8"?>
<svg version="1.1" id="Layer_1" xmlns="http://www.w3.org/2000/svg" xmlns:xlink="http://www.w3.org/1999/xlink" x="0px" y="0px" viewBox="0 0 512 512" fill="#f6c700" xml:space="preserve">
	<g>
		<path d="M283.85,25.21c-5.14-10.67-16-17.45-27.92-17.45c-11.93,0-22.69,6.79-27.92,17.45l-62.34,128.28L26.43,174.04
			c-11.64,1.75-21.33,9.89-24.92,21.04c-3.59,11.15-0.68,23.46,7.66,31.71l101.03,99.97L86.35,468.02
			c-1.94,11.64,2.91,23.46,12.51,30.35s22.3,7.76,32.77,2.23l124.4-66.42l124.4,66.42c10.47,5.53,23.17,4.75,32.77-2.23
			s14.45-18.71,12.51-30.35l-23.95-141.27l101.03-99.97c8.34-8.24,11.34-20.56,7.66-31.71c-3.68-11.15-13.28-19.29-24.92-21.04
			L346.2,153.49L283.85,25.21z"
		/>
	</g>
</svg>
